<?xml version="1.0" encoding="utf-8"?>
<!-- Generator: Adobe Illustrator 23.1.0, SVG Export Plug-In . SVG Version: 6.00 Build 0)  -->
<svg version="1.1" id="Layer_1" xmlns="http://www.w3.org/2000/svg" xmlns:xlink="http://www.w3.org/1999/xlink" x="0px" y="0px"
	 viewBox="0 0 35.49 33.38" style="enable-background:new 0 0 35.49 33.38;" xml:space="preserve">
<style type="text/css">
	.st0{fill:#040000;}
	.st1{fill:#373737;}
	.st2{fill:#565351;}
	.st3{fill:#6A6866;}
	.st4{fill:#8F8C8A;}
	.st5{fill:#A2A09B;}
	.st6{fill:#C4C2BD;}
</style>
<g>
	<path d="M102.33,7.97c1.12-5.24,3.49-9.34,7.1-12.31c3.61-2.97,7.92-4.45,12.91-4.45c2.65,0,5.12,0.52,7.41,1.56
		c2.29,1.04,4.25,2.42,5.88,4.15c1.63,1.73,2.88,3.71,3.74,5.93c0.86,2.22,1.25,4.52,1.14,6.89c-0.21,2.77-0.94,5.31-2.21,7.64
		c-1.27,2.32-2.88,4.3-4.81,5.93c-1.94,1.63-4.1,2.89-6.49,3.78s-4.86,1.24-7.41,1.04c-2.65-0.2-5.09-0.91-7.33-2.15
		c-2.24-1.23-4.15-2.79-5.73-4.67c-1.58-1.88-2.75-3.98-3.51-6.3C102.25,12.69,102.02,10.34,102.33,7.97z M128.75,9.75
		c0.2-1.98-0.23-3.68-1.3-5.12c-1.07-1.43-2.57-2.2-4.51-2.3c-1.22-0.1-2.39,0.1-3.51,0.59c-1.12,0.5-2.06,1.14-2.83,1.93
		c-0.76,0.79-1.35,1.73-1.76,2.82c-0.41,1.09-0.56,2.18-0.46,3.26c0.2,1.58,0.79,2.97,1.76,4.15c0.97,1.19,2.26,1.78,3.89,1.78
		c2.24,0,4.17-0.69,5.8-2.08C127.48,13.4,128.45,11.72,128.75,9.75z"/>
</g>
<g>
	<path class="st0" d="M19.58,5.18c0,0.48-0.55,0.86-1.24,0.86l0,0c-0.68,0-1.24-0.39-1.24-0.86V0.86c0-0.48,0.55-0.86,1.24-0.86l0,0
		c0.68,0,1.24,0.39,1.24,0.86V5.18z"/>
	<path class="st0" d="M12.53,6.14c0.27,0.4,0.03,1.01-0.54,1.36l0,0c-0.57,0.35-1.26,0.32-1.53-0.08L7.98,3.8
		C7.7,3.4,7.94,2.79,8.52,2.44l0,0c0.57-0.35,1.26-0.32,1.53,0.08L12.53,6.14z"/>
	<path class="st0" d="M7.16,10.6c0.46,0.19,0.6,0.83,0.33,1.43l0,0c-0.28,0.59-0.88,0.92-1.33,0.72L2,11
		C1.54,10.8,1.4,10.16,1.67,9.57l0,0c0.28-0.59,0.88-0.92,1.33-0.72L7.16,10.6z"/>
	<path class="st0" d="M5.21,17.12c0.5-0.07,0.98,0.38,1.09,1.03l0,0c0.11,0.64-0.21,1.22-0.7,1.3l-4.49,0.67
		c-0.5,0.07-0.98-0.38-1.09-1.03l0,0c-0.11-0.64,0.21-1.22,0.7-1.29L5.21,17.12z"/>
	<path class="st0" d="M7.32,23.59c0.37-0.32,1.05-0.19,1.5,0.3l0,0c0.46,0.48,0.53,1.13,0.15,1.45L5.6,28.23
		c-0.37,0.32-1.05,0.19-1.5-0.3l0,0c-0.46-0.48-0.52-1.13-0.15-1.45L7.32,23.59z"/>
	<path class="st1" d="M12.8,27.93c0.13-0.46,0.77-0.7,1.43-0.53l0,0c0.66,0.17,1.09,0.68,0.96,1.14l-1.18,4.17
		c-0.13,0.46-0.77,0.7-1.43,0.53l0,0c-0.66-0.17-1.09-0.68-0.96-1.14L12.8,27.93z"/>
	<path class="st2" d="M19.88,28.74c-0.16-0.45,0.25-0.98,0.9-1.18l0,0c0.65-0.2,1.3,0.01,1.46,0.46l1.4,4.11
		c0.16,0.45-0.25,0.98-0.9,1.18l0,0c-0.65,0.2-1.3,0-1.46-0.46L19.88,28.74z"/>
	<path class="st3" d="M26.28,25.75c-0.39-0.3-0.36-0.95,0.07-1.46l0,0c0.43-0.5,1.1-0.67,1.48-0.37l3.53,2.72
		c0.39,0.3,0.36,0.95-0.07,1.46l0,0c-0.43,0.5-1.09,0.67-1.48,0.37L26.28,25.75z"/>
	<path class="st4" d="M29.93,19.93c-0.5-0.05-0.84-0.61-0.77-1.26l0,0c0.07-0.65,0.53-1.13,1.03-1.08l4.52,0.45
		c0.5,0.05,0.85,0.61,0.77,1.26l0,0c-0.07,0.65-0.54,1.13-1.03,1.08L29.93,19.93z"/>
	<path class="st5" d="M29.66,13.16c-0.45,0.22-1.06-0.08-1.37-0.65l0,0c-0.31-0.58-0.2-1.22,0.25-1.44l4.05-1.96
		c0.45-0.22,1.06,0.08,1.37,0.66l0,0c0.31,0.58,0.2,1.22-0.25,1.44L29.66,13.16z"/>
	<path class="st6" d="M25.98,7.84C25.73,8.25,25.04,8.33,24.45,8l0,0c-0.59-0.32-0.87-0.92-0.62-1.33l2.27-3.74
		c0.25-0.41,0.93-0.48,1.52-0.16l0,0c0.59,0.32,0.87,0.92,0.62,1.33L25.98,7.84z"/>
</g>
<g>
	<g>
		<path d="M16.29,67.53c0.11,1.15,0.21,2.38,0.29,3.7c0.08,1.32,0.15,2.64,0.21,3.96c0.05,1.32,0.1,2.63,0.13,3.92
			c0.03,1.29,0.04,2.48,0.04,3.57c-0.06,0.98-0.46,1.74-1.21,2.28c-0.75,0.55-1.52,0.85-2.29,0.9c-0.89,0.06-1.67-0.13-2.34-0.56
			s-1-1.13-1-2.11c0-2.58-0.03-5.16-0.08-7.75c-0.06-2.58-0.25-5.22-0.58-7.92L2.28,66.5C1,66.15,0.15,65.55-0.26,64.69
			c-0.42-0.86-0.51-1.69-0.29-2.5c0.22-0.69,0.65-1.29,1.29-1.81c0.64-0.52,1.38-0.72,2.21-0.6c3.17,0.34,6.53,0.62,10.09,0.82
			c3.56,0.2,7.17,0.26,10.84,0.17c3.67-0.09,7.34-0.33,11.01-0.73c3.67-0.4,7.23-0.97,10.68-1.72c0.83-0.17,1.58-0.03,2.25,0.43
			c0.67,0.46,1.14,1.09,1.42,1.89c0.28,0.8,0.22,1.62-0.17,2.45c-0.39,0.83-1.22,1.42-2.5,1.76c-0.83,0.29-2.06,0.55-3.67,0.77
			c-1.61,0.23-3.39,0.49-5.34,0.77c0.28,2.18,0.47,4.4,0.58,6.67c0.11,2.27,0.14,4.35,0.08,6.24c-0.06,0.98-0.45,1.74-1.17,2.28
			c-0.72,0.55-1.5,0.85-2.34,0.9c-0.83,0.06-1.6-0.13-2.29-0.56c-0.7-0.43-1.04-1.13-1.04-2.11c0-1.95-0.07-3.94-0.21-5.98
			c-0.14-2.04-0.35-4.29-0.63-6.76c-3.12,0.29-5.91,0.46-8.38,0.52C19.7,67.67,17.74,67.65,16.29,67.53z"/>
	</g>
	<g>
		<path d="M40.05,104.18c-0.27,1.88-1.15,3.14-2.63,3.77c-1.48,0.64-3.44,1.03-5.87,1.18c-2.16,0.1-4.48,0.17-6.98,0.19
			c-2.5,0.03-4.92-0.04-7.28-0.19c-1.08-0.05-2.04-0.16-2.88-0.34c-0.84-0.18-1.55-0.48-2.12-0.91c-0.57-0.43-1.03-1.03-1.37-1.79
			c-0.34-0.76-0.57-1.78-0.71-3.05c-0.2-1.78-0.34-3.44-0.4-4.99c-0.07-1.55-0.04-3.06,0.1-4.53c0.07-0.96,0.2-1.78,0.4-2.44
			c0.2-0.66,0.52-1.21,0.96-1.64c0.44-0.43,1.08-0.76,1.92-0.99c0.84-0.23,1.94-0.39,3.29-0.5c2.56-0.15,5.14-0.23,7.74-0.23
			c2.59,0,5.51,0.03,8.75,0.08c2.9,0.1,4.8,0.61,5.71,1.52c0.91,0.91,1.43,2.39,1.57,4.42c0.13,1.68,0.17,3.37,0.1,5.07
			C40.28,100.51,40.18,102.3,40.05,104.18z M32.46,101.21c0.13-1.07,0.17-2.07,0.1-3.01c-0.07-0.94-0.14-1.69-0.2-2.25
			c-0.14-1.12-0.34-1.82-0.61-2.09c-0.27-0.28-1.05-0.47-2.33-0.57c-1.55-0.1-3-0.14-4.35-0.11c-1.35,0.03-2.77,0.06-4.25,0.11
			c-1.35,0.1-2.17,0.42-2.48,0.95s-0.46,1.33-0.46,2.4c0,1.02-0.02,1.82-0.05,2.4c-0.04,0.58,0.02,1.23,0.15,1.94
			c0.13,1.02,0.51,1.65,1.11,1.9c0.61,0.26,1.58,0.41,2.93,0.46h6.17c1.35-0.05,2.36-0.2,3.03-0.46
			C31.92,102.63,32.33,102.07,32.46,101.21z"/>
	</g>
</g>
<g>
	<g>
		<path d="M-112.09,33.48c1.56,0.97,3.33,1.65,5.15,1.91c0.26,0.04,0.53,0.08,0.79,0.1c0.15,0.02,0.15,0.01-0.01-0.01
			c-0.13-0.11-0.26-0.22-0.39-0.33c-0.07-0.34-0.1-0.41-0.09-0.22c0,0.03,0,0.06-0.01,0.09c0.01-0.27-0.02,0.08-0.03,0.12
			c-0.02,0.11-0.05,0.22-0.07,0.34c-0.05,0.22-0.11,0.44-0.18,0.66c-0.07,0.22-0.14,0.44-0.22,0.65c-0.04,0.11-0.08,0.21-0.12,0.32
			c-0.08,0.2,0.03-0.05-0.07,0.16c-0.19,0.41-0.4,0.82-0.63,1.21c-0.29,0.49-0.13,1.22,0.39,1.49c0.53,0.28,1.18,0.13,1.49-0.39
			c0.55-0.93,0.99-1.93,1.29-2.97c0.31-1.1,0.73-2.79-0.75-3.22c-0.26-0.08-0.56-0.08-0.83-0.11c0.19,0.02-0.12-0.02-0.16-0.02
			c-0.15-0.02-0.3-0.05-0.44-0.08c-0.48-0.09-0.95-0.21-1.42-0.36c-0.94-0.3-1.69-0.65-2.6-1.22c-0.48-0.3-1.22-0.12-1.49,0.39
			C-112.77,32.52-112.61,33.16-112.09,33.48L-112.09,33.48z"/>
	</g>
	<g>
		<path d="M-113.42,38.95c1.9,0.86,3.88,1.38,5.96,1.52c0.57,0.04,1.11-0.53,1.09-1.09c-0.03-0.62-0.48-1.04-1.09-1.09
			c-0.23-0.02-0.46-0.04-0.69-0.06c-0.07-0.01-0.13-0.02-0.2-0.02c0.11,0.02,0.12,0.02,0.04,0.01c-0.11-0.02-0.23-0.03-0.34-0.05
			c-0.44-0.07-0.87-0.16-1.3-0.27c-0.43-0.11-0.85-0.24-1.27-0.38c-0.22-0.08-0.43-0.16-0.65-0.24c-0.02-0.01-0.31-0.13-0.1-0.04
			c-0.12-0.05-0.24-0.11-0.36-0.16c-0.52-0.24-1.2-0.17-1.49,0.39C-114.06,37.94-113.97,38.7-113.42,38.95L-113.42,38.95z"/>
	</g>
	<g>
		<path d="M-114.19,37.34c-0.33,1.19-0.53,2.42-0.57,3.65c-0.04,1.18-0.04,2.53,0.9,3.39c0.81,0.75,1.95,1.23,3.02,1.46
			c1.16,0.24,2.32,0.22,3.47-0.03c0.57-0.13,0.91-0.79,0.76-1.34c-0.16-0.59-0.76-0.89-1.34-0.76c-0.71,0.16-1.63,0.18-2.32,0.03
			c-0.38-0.08-0.87-0.23-1.1-0.34c-0.2-0.09-0.4-0.2-0.59-0.31c-0.08-0.05-0.16-0.1-0.25-0.15c-0.22-0.14,0.06,0.09-0.13-0.1
			c-0.02-0.02-0.19-0.21-0.14-0.14c0.06,0.08-0.08-0.17-0.02-0.02c-0.04-0.1-0.07-0.22-0.09-0.33c0.03,0.16-0.02-0.18-0.02-0.18
			c-0.03-0.48-0.02-0.97,0-1.45c0.05-0.96,0.22-1.85,0.48-2.8c0.15-0.55-0.19-1.21-0.76-1.34
			C-113.43,36.45-114.03,36.75-114.19,37.34L-114.19,37.34z"/>
	</g>
	<g>
		<path d="M-78.8,41.2c1.59,0.39,3.25,0.53,4.88,0.42c0.2-0.01,0.4-0.03,0.6-0.05c0.17-0.02,0.41-0.01,0.57-0.07
			c0.16,0,0.09-0.07-0.22-0.21c-0.2-0.04-0.29-0.14-0.28-0.3c-0.03,0.06,0.01,0.18,0.01,0.25c0,0.18-0.01,0.37-0.02,0.55
			c-0.04,0.57-0.24,1.39-0.48,1.95c-0.2,0.47-0.14,1.01,0.34,1.29c0.4,0.23,1.09,0.13,1.29-0.34c0.4-0.92,0.66-1.85,0.74-2.85
			c0.03-0.42,0.06-0.89-0.05-1.3c-0.18-0.62-0.78-0.99-1.41-0.93c-1.87,0.19-3.65,0.19-5.45-0.24c-0.48-0.12-1.05,0.15-1.16,0.66
			C-79.58,40.52-79.32,41.07-78.8,41.2L-78.8,41.2z"/>
	</g>
	<g>
		<path d="M-78.75,45.59c1.91,0.25,3.82,0.19,5.71-0.1c0.49-0.08,0.81-0.72,0.66-1.16c-0.17-0.53-0.64-0.74-1.16-0.66
			c-0.27,0.04-0.29,0.04-0.54,0.07c-0.23,0.03-0.46,0.05-0.69,0.07c-0.44,0.03-0.88,0.05-1.32,0.06c-0.89,0.01-1.78-0.05-2.66-0.16
			c-0.49-0.06-0.97,0.48-0.95,0.95C-79.67,45.21-79.28,45.52-78.75,45.59L-78.75,45.59z"/>
	</g>
	<g>
		<path d="M-80.04,44.41c-0.09,1.03-0.01,2.09,0.23,3.1c0.11,0.46,0.25,0.95,0.51,1.35c0.32,0.49,0.78,0.79,1.33,0.98
			c0.9,0.31,1.94,0.39,2.88,0.33c1-0.06,1.98-0.27,2.9-0.64c0.47-0.19,0.81-0.63,0.66-1.16c-0.12-0.45-0.69-0.85-1.16-0.66
			c-1.44,0.58-2.99,0.77-4.45,0.4c-0.17-0.04-0.3-0.08-0.41-0.13c-0.14-0.06-0.11-0.06-0.17-0.16c-0.05-0.08-0.07-0.15-0.13-0.34
			c-0.06-0.2-0.11-0.4-0.16-0.6c-0.18-0.81-0.21-1.64-0.14-2.47c0.04-0.51-0.47-0.95-0.95-0.95C-79.64,43.47-79.99,43.9-80.04,44.41
			L-80.04,44.41z"/>
	</g>
	<g>
		<path d="M-105.09,42.63c0.99,0.18,1.99,0.36,2.98,0.54c0.29,0.05,0.57,0.05,0.84-0.11c0.23-0.13,0.44-0.39,0.5-0.65
			c0.06-0.28,0.05-0.59-0.11-0.84c-0.15-0.23-0.38-0.45-0.65-0.5c-0.99-0.18-1.99-0.36-2.98-0.54c-0.29-0.05-0.57-0.05-0.84,0.11
			c-0.23,0.13-0.44,0.39-0.5,0.65c-0.06,0.28-0.05,0.59,0.11,0.84C-105.6,42.36-105.37,42.58-105.09,42.63L-105.09,42.63z"/>
	</g>
	<g>
		<path d="M-101.32,36.22c0.12,0.79-0.18,1.67-0.34,2.44c-0.18,0.85-0.37,1.69-0.6,2.53c-0.23,0.83-0.49,1.66-0.82,2.45
			c-0.34,0.8-0.72,1.59-0.94,2.43c-0.35,1.36,1.75,1.94,2.1,0.58c0.24-0.91,0.66-1.74,1.01-2.61c0.34-0.86,0.62-1.75,0.85-2.65
			c0.23-0.9,0.43-1.81,0.62-2.72c0.22-1.02,0.38-1.99,0.22-3.03c-0.09-0.58-0.82-0.9-1.34-0.76
			C-101.18,35.05-101.41,35.64-101.32,36.22L-101.32,36.22z"/>
	</g>
	<g>
		<path d="M-97.84,35.22c-0.28,4.36-1.31,8.69-3.06,12.71c-0.23,0.54-0.16,1.17,0.39,1.49c0.46,0.27,1.25,0.15,1.49-0.39
			c1.91-4.39,3.05-9.03,3.35-13.8C-95.57,33.82-97.75,33.82-97.84,35.22L-97.84,35.22z"/>
	</g>
	<g>
		<path d="M-112.6,48.97c-0.08,1.39,0.06,2.85,0.54,4.16c0.48,1.32,1.39,2.16,2.63,2.79c2.4,1.24,5.19,1.45,7.77,0.69
			c1.34-0.4,0.77-2.5-0.58-2.1c-1.96,0.58-4.1,0.51-5.95-0.4c-0.85-0.42-1.54-0.85-1.84-1.78c-0.35-1.09-0.45-2.22-0.39-3.36
			c0.04-0.59-0.53-1.09-1.09-1.09C-112.13,47.88-112.56,48.38-112.6,48.97L-112.6,48.97z"/>
	</g>
	<g>
		<path d="M-97.48,56.71c-1.64,0.46-3.07,1.87-3.01,3.66c0.05,1.6,1.06,3,2.53,3.62c1.47,0.61,3.17,0.32,4.38-0.71
			c1.25-1.07,1.7-3.07,0.8-4.5c-0.45-0.71-1.14-1.24-1.85-1.68c-0.92-0.56-1.93-0.82-2.94-0.34c-0.44,0.21-0.55,0.83-0.32,1.22
			c0.26,0.45,0.78,0.53,1.22,0.32c0.1-0.05,0.25-0.04,0.41,0.01c0.27,0.07,0.45,0.17,0.72,0.34c0.22,0.14,0.45,0.28,0.66,0.45
			c-0.1-0.08,0.02,0.02,0.03,0.03c0.05,0.04,0.09,0.08,0.14,0.12c0.11,0.1,0.22,0.21,0.31,0.33c-0.08-0.1,0.01,0.02,0.02,0.04
			c0.03,0.05,0.07,0.1,0.1,0.15c0.03,0.05,0.06,0.11,0.09,0.16c-0.05-0.12,0.02,0.06,0.03,0.09c0.02,0.06,0.03,0.12,0.05,0.18
			c0.04,0.15-0.01-0.11,0.01,0.04c0.02,0.16,0.01,0.31,0,0.47c-0.01,0.16,0.02-0.11-0.01,0.04c-0.01,0.06-0.03,0.12-0.04,0.19
			c-0.02,0.08-0.05,0.15-0.07,0.23c0,0.01-0.06,0.16-0.02,0.05c-0.11,0.26-0.24,0.45-0.4,0.6c-0.2,0.21-0.26,0.25-0.5,0.39
			c-0.05,0.03-0.11,0.06-0.17,0.09c-0.25,0.14,0.07-0.02-0.09,0.04c-0.13,0.05-0.26,0.09-0.4,0.13c-0.07,0.02-0.15,0.03-0.22,0.05
			c-0.15,0.03,0.12-0.01-0.02,0c-0.12,0.01-0.23,0.02-0.35,0.01c-0.07,0-0.15-0.01-0.22-0.01c-0.03,0-0.18-0.02-0.02,0
			c-0.14-0.02-0.29-0.05-0.43-0.1c-0.06-0.02-0.11-0.04-0.17-0.05c-0.02-0.01-0.16-0.06-0.03-0.01c-0.11-0.05-0.21-0.1-0.31-0.16
			c-0.28-0.16-0.29-0.17-0.52-0.4c-0.02-0.02-0.23-0.27-0.15-0.17c-0.08-0.11-0.15-0.22-0.21-0.34c-0.03-0.05-0.06-0.11-0.08-0.16
			c-0.06-0.14,0.03,0.1-0.02-0.04c-0.05-0.15-0.1-0.29-0.13-0.45c0-0.02-0.03-0.21-0.02-0.11c0.01,0.06-0.01-0.17-0.01-0.2
			c0-0.06,0-0.12,0-0.19c0-0.05,0.02-0.21,0-0.08c0.03-0.15,0.06-0.3,0.12-0.44c-0.05,0.12,0.02-0.04,0.03-0.05
			c0.05-0.09,0.1-0.18,0.16-0.26c-0.06,0.07,0.05-0.05,0.05-0.05c0.07-0.07,0.14-0.14,0.21-0.21c0.12-0.11,0.16-0.15,0.31-0.24
			c0.3-0.2,0.48-0.28,0.81-0.37c0.47-0.13,0.75-0.63,0.62-1.1C-96.51,56.87-97.01,56.58-97.48,56.71L-97.48,56.71z"/>
	</g>
	<g>
		<path d="M-101.24,67.59c1.02,1.06,2.46,1.35,3.86,1.54c1.52,0.2,3.05,0.17,4.42-0.6c1.07-0.6,0.11-2.24-0.96-1.64
			c-0.98,0.54-2.12,0.52-3.21,0.37c-1.01-0.14-2.1-0.32-2.77-1.01C-100.75,65.36-102.09,66.7-101.24,67.59L-101.24,67.59z"/>
	</g>
	<g>
		<path d="M-91.01,58.97c0.83,1.24,0.57,2.85,0.42,4.24c-0.17,1.64-0.35,3.27-0.52,4.91c-0.05,0.51,0.48,0.95,0.95,0.95
			c0.56,0,0.9-0.44,0.95-0.95c0.19-1.76,0.38-3.52,0.56-5.28c0.17-1.63,0.23-3.41-0.72-4.83C-90.04,57-91.69,57.95-91.01,58.97
			L-91.01,58.97z"/>
	</g>
	<g>
		<path d="M-89.8,64.3c0.71,0.39,1.54,0.59,2.35,0.53c0.26-0.02,0.49-0.09,0.67-0.28c0.16-0.16,0.29-0.44,0.28-0.67
			c-0.01-0.25-0.09-0.5-0.28-0.67c-0.18-0.16-0.42-0.3-0.67-0.28c-0.25,0.02-0.49,0.01-0.73-0.02c0.08,0.01,0.17,0.02,0.25,0.03
			c-0.29-0.04-0.57-0.12-0.83-0.23c0.08,0.03,0.15,0.06,0.23,0.1c-0.1-0.04-0.2-0.09-0.3-0.15c-0.22-0.12-0.49-0.16-0.73-0.1
			c-0.22,0.06-0.46,0.23-0.57,0.44c-0.12,0.22-0.18,0.49-0.1,0.73C-90.16,63.97-90.02,64.18-89.8,64.3L-89.8,64.3z"/>
	</g>
	<g>
		<path d="M-97.65,71.39c0.05,0.97,0.12,2.03,0.68,2.87c0.61,0.91,1.49,1.17,2.55,1.17c2.08-0.01,4.16-0.37,6.14-1.02
			c0.49-0.16,0.81-0.66,0.66-1.17c-0.13-0.48-0.68-0.83-1.17-0.66c-1.58,0.52-3.2,0.86-4.86,0.93c-0.4,0.02-0.81,0.04-1.21,0.01
			c-0.24-0.02-0.34-0.05-0.47-0.22c-0.38-0.49-0.38-1.29-0.42-1.9c-0.03-0.51-0.42-0.95-0.95-0.95
			C-97.19,70.44-97.67,70.87-97.65,71.39L-97.65,71.39z"/>
	</g>
	<g>
		<path d="M-98.02,65.54c-0.02,0.73-0.05,1.46-0.1,2.19c-0.01,0.23,0.12,0.51,0.28,0.67c0.16,0.16,0.44,0.29,0.67,0.28
			c0.25-0.01,0.5-0.09,0.67-0.28c0.18-0.19,0.26-0.41,0.28-0.67c0.05-0.73,0.08-1.46,0.1-2.19c0.01-0.5-0.45-0.97-0.95-0.95
			C-97.59,64.61-98,65.01-98.02,65.54L-98.02,65.54z"/>
	</g>
	<g>
		<path d="M-83.1,59.44c1.12,0.59,2.33,1.04,3.58,1.24c0.63,0.1,1.27,0.17,1.92,0.18c0.58,0,1.22-0.14,1.79-0.01
			c-0.22-0.39-0.45-0.79-0.67-1.18c-0.29,1.07-0.7,2.07-1.27,3.02c-0.27,0.45-0.1,1.05,0.34,1.31c0.45,0.27,1.05,0.1,1.31-0.34
			c0.65-1.08,1.14-2.26,1.47-3.48c0.13-0.48-0.16-1.07-0.67-1.18c-0.65-0.15-1.27-0.08-1.93-0.06c-0.54,0.02-1.15-0.01-1.65-0.08
			c-1.14-0.17-2.23-0.53-3.25-1.07c-0.46-0.24-1.04-0.12-1.31,0.34C-83.69,58.56-83.56,59.19-83.1,59.44L-83.1,59.44z"/>
	</g>
	<g>
		<path d="M-83.38,63.19c1.07,0.68,2.29,0.98,3.53,1.13c0.55,0.07,1.11,0.1,1.67,0.12c0.76,0.03,1.47,0.05,1.94-0.66
			c0.28-0.42,0.09-1.08-0.34-1.31c-0.48-0.26-1.01-0.1-1.31,0.34c0.11-0.19,0.27-0.28,0.46-0.28c-0.05,0-0.1,0-0.15,0
			c-0.11,0-0.23-0.01-0.34-0.01c-0.25-0.01-0.49-0.02-0.74-0.03c-0.23-0.01-0.46-0.03-0.69-0.05c-0.1-0.01-0.2-0.02-0.29-0.03
			c-0.03,0-0.4-0.05-0.23-0.03c-0.99-0.15-1.74-0.37-2.53-0.86c-0.43-0.27-1.08-0.1-1.31,0.34C-83.98,62.34-83.84,62.9-83.38,63.19
			L-83.38,63.19z"/>
	</g>
	<g>
		<path d="M-83.85,62.08c-0.31,1.16-0.47,2.37-0.44,3.57c0.02,0.68,0.25,1.13,0.79,1.54c0.43,0.32,0.89,0.61,1.37,0.85
			c2.04,1,4.44,1.16,6.44-0.05c1.06-0.64,0.09-2.3-0.97-1.66c-1.35,0.82-2.97,0.77-4.39,0.1c-0.37-0.17-0.73-0.38-1.08-0.61
			c-0.09-0.06-0.21-0.17-0.31-0.21c0.01,0.01,0.02,0.01,0.02,0.02c-0.09-0.09-0.09-0.08-0.02,0.04c0.03,0.11,0.05,0.22,0.05,0.06
			c0-0.11,0-0.23,0-0.34c0-0.95,0.13-1.87,0.37-2.79c0.13-0.5-0.17-1.04-0.67-1.18C-83.17,61.28-83.72,61.58-83.85,62.08
			L-83.85,62.08z"/>
	</g>
	<g>
		<path d="M-83.92,69.89c-0.02,0.86,0.06,1.72,0.2,2.57c0.03,0.2,0.23,0.42,0.4,0.52c0.19,0.11,0.46,0.16,0.67,0.09
			c0.21-0.07,0.42-0.2,0.52-0.4c0.12-0.22,0.13-0.43,0.09-0.67c-0.02-0.13-0.04-0.27-0.06-0.4c0.01,0.08,0.02,0.15,0.03,0.23
			c-0.08-0.64-0.12-1.29-0.11-1.94c0.01-0.46-0.41-0.9-0.87-0.87C-83.53,69.04-83.92,69.4-83.92,69.89L-83.92,69.89z"/>
	</g>
	<g>
		<path d="M-79.09,70.47c0,0.02,0,0.03-0.01,0.05c0.01-0.09,0.02-0.17,0.03-0.26c-0.11,0.8-0.29,1.6-0.54,2.37
			c-0.15,0.48,0.18,1.07,0.67,1.18c0.53,0.12,1.02-0.16,1.18-0.67c0.28-0.87,0.46-1.76,0.58-2.67c0.03-0.23-0.13-0.53-0.28-0.68
			c-0.17-0.17-0.44-0.29-0.68-0.28c-0.25,0.01-0.51,0.09-0.68,0.28c-0.05,0.06-0.1,0.13-0.15,0.19
			C-79.05,70.13-79.09,70.3-79.09,70.47L-79.09,70.47z"/>
	</g>
	<g>
		<path d="M-85.72,72.78c1.67,1.34,3.71,1.78,5.79,2c2.17,0.23,4.36,0.04,6.35-0.92c1.11-0.54,0.14-2.19-0.97-1.66
			c-1.61,0.78-3.43,0.85-5.19,0.68c-1.58-0.15-3.36-0.44-4.63-1.46c-0.4-0.32-0.96-0.39-1.36,0
			C-86.05,71.76-86.12,72.46-85.72,72.78L-85.72,72.78z"/>
	</g>
	<g>
		<path d="M-94.71,44.07c1.94,0.67,3.99,0.88,6.02,1.09c0.57,0.06,1.11-0.54,1.09-1.09c-0.03-0.64-0.48-1.03-1.09-1.09
			c-0.48-0.05-0.96-0.1-1.43-0.15c-0.11-0.01-0.22-0.03-0.33-0.04c-0.07-0.01-0.15-0.02-0.22-0.03c-0.12-0.02-0.15-0.02-0.08-0.01
			c0.07,0.01,0.05,0.01-0.07-0.01c-0.07-0.01-0.15-0.02-0.22-0.03c-0.11-0.02-0.22-0.03-0.33-0.05c-0.94-0.16-1.86-0.38-2.76-0.69
			c-0.54-0.18-1.21,0.21-1.34,0.76C-95.61,43.34-95.29,43.88-94.71,44.07L-94.71,44.07z"/>
	</g>
	<g>
		<path d="M-95.38,42.76c-0.45,1.35-0.8,2.73-1.03,4.14c-0.12,0.72-0.21,1.44-0.28,2.17c-0.06,0.71-0.05,1.44,0.34,2.06
			c0.75,1.19,2.32,1.49,3.61,1.65c1.4,0.17,2.85,0.03,4.2-0.4c0.56-0.18,0.92-0.76,0.76-1.34c-0.15-0.55-0.78-0.94-1.34-0.76
			c-1.06,0.34-2.13,0.46-3.24,0.36c-0.52-0.04-1.04-0.15-1.53-0.32c-0.19-0.06-0.27-0.09-0.44-0.2c-0.12-0.08-0.15-0.08-0.19-0.21
			c-0.13-0.4,0.03-1.04,0.08-1.48c0.06-0.53,0.15-1.06,0.25-1.59c0.23-1.19,0.54-2.37,0.92-3.52c0.19-0.56-0.22-1.19-0.76-1.34
			C-94.63,41.84-95.19,42.2-95.38,42.76L-95.38,42.76z"/>
	</g>
	<g>
		<path d="M-88.08,49.08c1.46,0.11,2.95-0.07,4.34-0.52c0.54-0.18,0.95-0.76,0.76-1.34c-0.17-0.54-0.76-0.95-1.34-0.76
			c-0.31,0.1-0.63,0.19-0.95,0.26c-0.17,0.04-0.35,0.07-0.52,0.1c-0.08,0.01-0.15,0.02-0.23,0.04c-0.23,0.04,0.24-0.03-0.05,0.01
			c-0.67,0.08-1.35,0.09-2.02,0.03c-0.57-0.04-1.11,0.53-1.09,1.09C-89.14,48.62-88.69,49.03-88.08,49.08L-88.08,49.08z"/>
	</g>
	<g>
		<path d="M-84.65,43.18c0.74,3.4,0.62,6.93-0.32,10.28c-0.38,1.35,1.72,1.93,2.1,0.58c1.05-3.73,1.15-7.65,0.32-11.44
			C-82.85,41.23-84.95,41.81-84.65,43.18L-84.65,43.18z"/>
	</g>
	<g>
		<path d="M-69.21,39.03c1.15,3.01,1.47,6.28,0.78,9.44c-0.28,1.29,1.7,1.84,1.98,0.55c0.77-3.51,0.5-7.17-0.78-10.53
			c-0.2-0.52-0.69-0.87-1.26-0.72C-68.99,37.9-69.41,38.51-69.21,39.03L-69.21,39.03z"/>
	</g>
	<g>
		<path d="M-70.88,51.03c-0.93,0.11-1.89,0.27-2.69,0.79c-0.75,0.48-1.31,1.2-1.55,2.07c-0.49,1.77,0.48,3.55,2,4.45
			c1.67,0.99,3.73,0.84,5.42,0.02c0.81-0.39,1.64-0.93,2.07-1.75c0.43-0.82,0.6-1.77,0.45-2.68c-0.17-1.05-0.91-1.86-1.86-2.3
			c-1.01-0.47-2.1-0.84-3.22-0.87c-0.58-0.01-1.07,0.5-1.07,1.07c0,0.59,0.49,1.06,1.07,1.07c0.67,0.02,1.31,0.24,1.93,0.49
			c0.18,0.07,0.43,0.18,0.65,0.32c0.17,0.11,0.27,0.23,0.34,0.36c0.08,0.18,0.09,0.3,0.08,0.54c0,0.06,0,0.12-0.01,0.17
			c0.01-0.14,0,0.04-0.01,0.06c-0.03,0.15-0.07,0.3-0.12,0.45c-0.06,0.18-0.16,0.37-0.29,0.53c-0.13,0.14-0.44,0.33-0.69,0.47
			c-1.02,0.58-2.14,0.79-3.26,0.39c-0.14-0.05-0.11-0.04-0.3-0.14c-0.1-0.06-0.2-0.12-0.3-0.18c-0.18-0.12-0.1-0.07-0.06-0.04
			c-0.06-0.05-0.12-0.1-0.17-0.15c-0.11-0.1-0.22-0.22-0.31-0.34c0.06,0.09-0.1-0.17-0.12-0.21c-0.03-0.05-0.05-0.1-0.08-0.15
			c0.06,0.13-0.01-0.03-0.02-0.05c-0.04-0.12-0.08-0.25-0.1-0.38c-0.02-0.13,0-0.01,0,0.01c-0.01-0.09-0.01-0.18,0-0.28
			c0.01-0.35,0.21-0.8,0.51-1.04c0.27-0.21,0.44-0.27,0.75-0.36c0.32-0.1,0.72-0.17,0.97-0.2c0.57-0.07,1.07-0.44,1.07-1.07
			C-69.8,51.57-70.3,50.96-70.88,51.03L-70.88,51.03z"/>
	</g>
	<g>
		<path d="M-45.96,70.22c-2.93-1.76-5.01-4.45-6.71-7.37c-1.89-3.24-3.46-6.7-4.81-10.19c-2.49-6.43-3.53-13.63-8.07-19.06
			c-4.29-5.13-10.6-8.13-16.97-9.75c-3.49-0.89-7.06-1.4-10.63-1.81c-3.8-0.44-7.71-0.88-11.49-0.03c-6,1.36-10.89,6.01-13.52,11.44
			c-3.05,6.3-3.71,13.87-2.73,20.75c1.92,13.59,15.67,22.39,27.76,26.13c3.53,1.09,7.17,1.88,10.84,2.33
			c4.45,0.55,8.66,0.08,12.92-1.28c3.96-1.26,7.99-2.67,11.71-4.54c3.42-1.73,6.59-4.6,10.52-5.02c1.3-0.14,1.31-2.19,0-2.05
			c-3.23,0.34-5.89,1.97-8.61,3.63c-2.97,1.81-6.1,3.14-9.36,4.32c-3.37,1.23-6.81,2.56-10.39,3c-3.76,0.46-7.59-0.11-11.28-0.88
			c-6.09-1.26-12.03-3.38-17.34-6.63c-5.37-3.29-10.45-7.93-13.14-13.72c-1.57-3.39-1.92-7.13-1.93-10.83
			c-0.01-3.49,0.36-6.99,1.35-10.34c1.75-5.88,5.74-11.43,11.63-13.68c3.3-1.26,6.83-1.16,10.29-0.83
			c3.56,0.34,7.13,0.78,10.63,1.52c6.36,1.34,12.69,3.82,17.27,8.59c2.59,2.7,4.16,5.98,5.32,9.49c1.22,3.71,2.28,7.46,3.76,11.09
			c2.6,6.39,5.78,13.79,11.95,17.5C-45.86,72.67-44.83,70.9-45.96,70.22L-45.96,70.22z"/>
	</g>
</g>
</svg>
